<svg xmlns="http://www.w3.org/2000/svg" width="167" height="148" viewBox="0 0 167 148"><g fill="none" fill-rule="evenodd"><path fill="#13BF99" d="M38.725 77.322H.07l19.327 33.474z"></path><path fill="#71D9C2" d="M58.051 110.797H19.398l19.327 33.474z"></path><path fill="#42CCAD" d="M19.398 110.797H58.05L38.724 77.323z"></path><path fill="#13BF99" d="M63.849 114.145l-19.326 33.474h38.652z"></path><path fill="#76C5B4" d="M102.502 114.145l-19.327 33.474h38.653z"></path><path fill="#42CCAD" d="M83.175 147.62l19.328-33.475H63.849z"></path><path fill="#13BF99" d="M108.3 110.798l19.326 33.474 19.327-33.474z"></path><path fill="#71D9C2" d="M127.627 77.322l19.326 33.474 19.327-33.474z"></path><path fill="#42CCAD" d="M146.953 110.797l-19.326-33.474-19.327 33.474z"></path><path fill="#13BF99" d="M127.627 70.623h38.653l-19.327-33.474z"></path><path fill="#71D9C2" d="M108.3 37.148h38.653L127.626 3.674z"></path><path fill="#42CCAD" d="M146.953 37.148H108.3l19.327 33.474z"></path><path fill="#13BF99" d="M102.502 33.802L121.828.326H83.175z"></path><path fill="#71D9C2" d="M63.849 33.802L83.175.326H44.523z"></path><path fill="#42CCAD" d="M83.175.326L63.85 33.8h38.654z"></path><path fill="#13BF99" d="M58.051 37.148L38.725 3.674 19.398 37.148z"></path><path fill="#71D9C2" d="M38.725 70.623L19.398 37.149.071 70.623z"></path><path fill="#42CCAD" d="M19.398 37.148l19.326 33.474 19.327-33.474z"></path></g></svg>