<svg xmlns="http://www.w3.org/2000/svg" viewBox="0 0 125 150" version="1.1" x="0px" y="0px" width="125px" height="150px"><g transform="matrix(2.834666951497396, 0, 0, 2.834666951497396, 0.000008577289008826483, 141.74990844726562)"><path d="M 151.89 104.49 C 156.15 106.83 160.35 109.31 164.51 111.85 C 162.33 113.13 160.15 114.40 157.97 115.67 C 155.93 114.54 153.90 113.37 151.88 112.20 C 149.88 113.36 147.85 114.47 145.88 115.66 C 143.61 114.44 141.35 113.19 139.13 111.87 C 143.32 109.32 147.54 106.76 151.89 104.49 Z" fill="#2db1ed" transform="matrix(0.9999999999999999, 0, 0, 0.9999999999999999, -129.2931558880627, -154.4775538049032)"/><path d="M 129.63 117.29 C 137.15 121.21 144.38 125.77 151.76 129.95 C 151.85 132.86 151.90 135.78 151.95 138.70 C 146.97 136.05 142.20 133.06 137.28 130.31 C 137.15 135.85 137.25 141.40 137.20 146.94 C 134.61 145.75 132.09 144.41 129.58 143.04 C 129.57 134.47 129.35 125.86 129.63 117.29 Z" fill="#2eb0eb" transform="matrix(0.9999999999999999, 0, 0, 0.9999999999999999, -129.2931558880627, -154.4775538049032)"/><path d="M 174.17 117.22 C 174.30 124.15 174.20 131.07 174.29 138.00 C 174.19 139.51 174.45 141.39 173.80 142.77 C 171.86 144.66 168.96 145.74 166.59 146.96 C 166.55 141.37 166.59 135.79 166.48 130.20 C 161.68 133.11 156.77 135.82 151.95 138.70 C 151.90 135.78 151.85 132.86 151.76 129.95 C 159.29 125.80 166.57 121.23 174.17 117.22 Z" fill="#43d8d9" transform="matrix(0.9999999999999999, 0, 0, 0.9999999999999999, -129.2931558880627, -154.4775538049032)"/><path d="M 158.00 144.50 C 160.20 145.57 162.33 146.90 164.44 148.15 C 160.46 150.97 156.14 153.17 151.92 155.60 C 147.52 153.32 143.26 150.85 139.08 148.19 C 141.30 146.94 143.54 145.72 145.79 144.53 C 147.80 145.67 149.86 146.74 151.89 147.84 C 153.91 146.67 155.87 145.49 158.00 144.50 Z" fill="#43d8da" transform="matrix(0.9999999999999999, 0, 0, 0.9999999999999999, -129.2931558880627, -154.4775538049032)"/></g></svg>