<?xml version="1.0" encoding="UTF-8" standalone="no"?>
<!DOCTYPE svg PUBLIC "-//W3C//DTD SVG 1.1//EN" "http://www.w3.org/Graphics/SVG/1.1/DTD/svg11.dtd">
<svg viewBox="0 0 259 259" height="259.0pt" width="259.0pt" xmlns="http://www.w3.org/2000/svg" version="1.1">
<path d="M 130.15 20.12 C 144.66 49.15 158.86 78.36 173.30 107.43 C 193.49 114.24 213.65 121.14 233.85 127.95 C 236.02 128.64 238.17 129.31 240.20 130.37 C 213.46 143.64 186.63 156.75 159.88 170.01 C 157.73 171.11 155.39 172.02 153.38 173.38 C 152.16 175.70 151.57 178.36 150.68 180.82 C 143.94 200.60 137.26 220.43 130.51 240.21 C 129.34 238.39 128.36 236.49 127.46 234.54 C 114.20 207.43 100.69 180.44 87.47 153.31 C 65.07 145.51 42.45 138.24 20.11 130.27 C 22.02 129.43 23.92 128.57 25.79 127.64 C 52.98 114.16 80.28 100.86 107.45 87.32 C 114.96 64.91 122.70 42.56 130.15 20.12 Z" fill="#010101" />
<path d="M 131.76 40.04 C 142.90 63.02 154.41 85.82 165.55 108.80 C 142.53 120.14 119.51 131.50 96.49 142.83 C 107.44 110.58 118.38 78.32 129.31 46.05 C 130.06 44.10 130.42 41.67 131.76 40.04 Z" fill="#ffffff" />
<path d="M 104.01 97.40 C 98.49 113.42 93.24 129.53 87.60 145.49 C 71.73 139.87 55.69 134.70 39.79 129.17 C 61.10 118.41 82.64 108.05 104.01 97.40 Z" fill="#ffffff" />
<path d="M 170.92 114.54 C 185.78 119.55 200.65 124.62 215.52 129.63 C 217.25 130.28 219.05 130.46 220.26 131.91 C 196.83 143.44 173.37 154.92 150.01 166.58 C 135.84 161.80 121.71 156.96 107.54 152.19 C 104.99 151.37 102.47 150.52 100.03 149.40 C 123.68 137.86 147.26 126.05 170.92 114.54 Z" fill="#ffffff" />
<path d="M 97.42 156.77 C 113.44 162.11 129.46 167.56 145.47 172.95 C 139.94 188.93 134.66 205.00 129.11 220.97 C 118.58 199.56 108.06 178.13 97.42 156.77 Z" fill="#ffffff" /></svg>