<svg viewBox="0 0 300 300" xmlns="http://www.w3.org/2000/svg"><path d="M150.72 22.35c2.16 1.33 3.96 3.4 5.76 5.17 7.09 7.09 14.12 14.24 21.32 21.21 12.25-2.87 24.22-6.84 36.52-9.5 3.96 11.87 6.86 24.11 10.26 36.14 12.3 3.97 24.95 6.52 37.32 10.22-.84 6.74-3.3 12.83-4.98 19.35-1.6 6.03-3.19 12.05-4.66 18.12 7.58 7.97 15.61 15.51 23.34 23.34 1.19 1.49 3.22 2.84 1.77 4.9-2.61 3.34-5.98 6.1-8.92 9.16-5.36 5.5-10.96 10.75-16.19 16.39 2.34 8.94 4.48 17.89 7.21 26.69 1.05 3.41 1.9 6.83 2.5 10.33-12.24 4.37-25.22 6.16-37.5 10.57-3.26 12.07-6.31 24.24-10.2 36.13-12.4-2.74-24.33-6.98-36.8-9.43-9.08 8.99-17.85 18.39-27.42 26.84-8.22-7.79-16.16-15.88-24.12-23.94-1.06-.9-2.55-2.65-4.04-2.57-12.19 1.75-23.97 7.57-36.3 8.56-3.33-11.9-6.61-23.79-9.78-35.73-10.72-3.25-21.58-5.91-32.44-8.64-2.27-.76-5.42-1.19-4.42-4.42 2.44-10.9 6.42-21.55 8.58-32.54.66-2.78-1.62-4.13-3.21-6.01-6.29-6.05-12.48-12.2-18.67-18.35-1.08-1.19-2.43-2.41-3.11-3.88-.63-1.68.95-2.81 1.91-3.92 6.11-5.92 12.05-12.01 18.21-17.88 1.72-1.79 4.01-3.66 4.99-5.96-.12-4.49-2.01-8.99-3-13.36-1.87-7.69-5.1-15.39-6.04-23.22 4.58-2.61 10.38-3.27 15.42-4.73 7.04-1.99 14.59-3.23 21.33-6.09 1.42-2.19 1.92-5.05 2.63-7.54 2.33-9.55 5.12-19 7.89-28.43 12.54 2.3 24.53 6.78 37.05 9.25 7.69-7.87 15.62-15.49 23.27-23.4 1.23-1.08 2.77-2.85 4.52-2.83z" fill="#11b8a7"/><path d="M147.83 29.76c.84 8.47.4 17.08.39 25.58-7.08-1.5-14-3.54-20.98-5.4 6.9-6.68 13.47-13.74 20.59-20.18zM152.47 29.67c6.99 6.51 13.67 13.38 20.34 20.21-6.75 2.05-13.58 3.92-20.48 5.41 0-8.53-.16-17.08.14-25.62zM208.6 45.07c-3.97 7.43-8.56 14.49-12.6 21.89-4.95-4.87-9.94-9.74-14.66-14.83 8.98-2.69 18.15-4.81 27.26-7.06zM99.06 47.12c6.79 1.34 13.51 3.04 20.15 5-1.62 1.69-3.31 3.61-5.27 4.87-5.45-2.07-10.15-6.5-14.88-9.87zM88 47.76c4.95 6.6 8.38 14.31 12.8 21.28-6.84 1.85-13.35 3.82-20.23 4.95 2.47-8.72 4.51-17.65 7.43-26.23zM94.85 49.84c5.27 3.23 11.17 6.52 15.39 11.09-1.69 2.26-3.75 4.01-5.89 5.82-3.15-5.62-6.87-11.02-9.5-16.91zM209.74 51.81c-.05 6.46-1.12 12.79-1.47 19.23-2.85-.5-5.67-1.1-8.49-1.71 2.93-6.03 6.42-11.81 9.96-17.52zM124.02 53.6c5.79 1.19 11.51 2.79 17.18 4.41-6.22 1.92-12.59 4.32-19.05 5.2-1.79-.83-3.42-2.09-5.05-3.19 2.22-2.24 4.44-4.46 6.92-6.42zM176.04 53.55c4.74 3.48 8.71 8.24 12.88 12.41-10.11-2.16-20.12-4.86-30-7.88 5.68-1.61 11.37-3.21 17.12-4.53zM214.32 54.8c2.13 6.39 3.87 12.92 5.53 19.45-2.51-.61-5-1.25-7.49-1.91.77-5.84 1.12-11.72 1.96-17.54zM152.89 60.98c13.3 3.71 26.76 6.75 40 10.69-1.81 3.55-3.64 7.09-5.71 10.51-3.83 6.28-7.15 12.82-11.26 18.93-6.35-3.91-12.19-8.51-18.37-12.67-10.2-7.35-20.77-14.25-30.77-21.86 5.74-1.79 11.63-2.99 17.39-4.73 2.99-.79 5.61-1.79 8.72-.87zM117.2 64.42c-1.91.49-3.83.9-5.78 1.19 2.35-2.12 2.88-1.83 5.78-1.19zM119.36 68.42c2.08-.55 4.2 1.3 5.88 2.32 16.26 11.47 32.41 22.82 48.69 34.27-1.92 3.29-3.92 6.54-5.94 9.76-11.08-.05-22.16.07-33.24-.12 2.98-6.18 7.3-11.69 9.98-17.96.63-1.13.47-2.25-.49-3.36-6.66 2.09-12.93 5.49-19.41 8.09-4.04-5.6-7.06-11.72-10.67-17.59-2.39-3.89-4.47-7.94-6.57-12 3.88-1.21 7.78-2.64 11.77-3.41zM96.83 74.22c-7.15 7.67-14.76 14.94-22.27 22.25 1.52-5.76 3.02-11.53 4.61-17.28 5.82-1.92 11.76-3.35 17.66-4.97zM103.25 74.12c2.46 2.8 4.25 6.29 6.11 9.51 3.67 6.76 8 13.02 11.14 20.07-9.48 3.99-18.63 8.69-28.1 12.7-8.72 3.9-17.37 8.3-26.34 11.63 1.59-6.66 3.34-13.31 5.13-19.92.96-3.5 3.33-5.65 5.82-8.09 8.83-8.52 17.27-17.54 26.24-25.9zM197 74.14c3.32 2.77 6.7 6.07 9.36 9.48.84 2.52.17 5.72.08 8.36-1.69 18.54-3.42 37.18-5.42 55.69-3.66.05-7.32.08-10.98.12-2.27-3.69-4.56-7.37-6.67-11.16-3.33-5.98-7.19-11.56-10-17.84 7.36-.3 14.73-.05 22.1-.18.32-.89.65-1.78.98-2.66-5.67-3.96-11.16-8.17-16.9-12.04 2.68-5.04 5.48-10.02 8.47-14.88 2.99-4.87 5.39-10.44 8.98-14.89zM204 74.31c1.15.38 2.3.78 3.43 1.23.11.94.22 1.88.31 2.83-1.29-1.32-2.55-2.65-3.74-4.06zM211.62 76.46c3.27.9 6.53 1.88 9.77 2.89 1.48 5.81 3.03 11.6 4.47 17.42-4.17-4.37-8.85-8.3-12.76-12.9-2.11-2.21-1.29-4.62-1.48-7.41zM74.08 80.52c-1.31 6.77-3.18 13.63-5.52 20.12-7.42-4.05-14.6-8.5-21.95-12.67 8.97-3.04 18.25-5.28 27.47-7.45zM226.15 80.53c9.39 2.06 18.72 4.62 27.95 7.32-7.5 4.21-14.81 8.72-22.37 12.81-2.04-6.62-4.27-13.32-5.58-20.13zM210.96 88.1c3.81 3.06 7.08 6.92 10.62 10.31 3.44 3.52 7 6.03 8.05 11.17 3.12 12.79 7.09 25.33 10.19 38.13-11.49.08-22.97.08-34.46-.02 1.96-19.95 3.37-39.67 5.6-59.59zM44.25 91.54c7.45 4.25 15.18 8.29 22.26 13.12-4.81 4.9-9.59 9.81-14.65 14.45-3.13-8.99-5.48-18.3-7.61-27.57zM255.95 91.72c-1.87 9.18-4.22 18.34-7.57 27.1-5.16-4.38-9.81-9.26-14.52-14.1 6.92-4.98 14.72-8.72 22.09-13z" fill="#fefefe"/><path d="M137.36 100.7c-1.8 4.15-4.07 8.03-6.5 11.84-1.38-2.39-2.7-4.81-3.99-7.26 3.45-1.64 6.91-3.24 10.49-4.58zM123.27 107.24c1.63 2.83 3.53 5.78 4.42 8.94.22 2.06-1.39 4.41-2.28 6.21-4.57 7.73-9.15 15.46-13.62 23.25-3.25-5.29-6.21-10.73-9.41-16.04-1.03-1.94-2.79-2.6-4.69-3.45-1.16 7.13-1.71 14.37-2.32 21.56-11.49-.02-22.98.07-34.46-.07.84-4.15 1.5-8.54 3.1-12.48.56-1.44 2.11-2.06 3.38-2.77 12.8-5.86 25.66-11.66 38.49-17.51 5.77-2.46 11.42-5.79 17.39-7.64zM177.09 107.5c3.61 2.01 6.81 4.53 10.01 7.14-4.58.1-9.15.13-13.72.02 1.19-2.41 2.38-4.82 3.71-7.16zM65.93 111.28c-1.57 5.98-2.88 12.09-4.79 17.98-.56 2.35-3.92 3.09-5.81 4.12-.75-2.91-1.92-6.02-1.9-9.05 3.29-4.92 8.41-8.77 12.5-13.05zM234.46 111.81c3.44 2.77 6.63 5.88 9.7 9.04 1.3 1.54 2.89 2.8 2.58 5.02-.53 5.2-2.46 10.33-4 15.3-3.37-9.58-5.47-19.6-8.28-29.36zM132.69 118.93c1.7-.35 3.51-.3 5.24-.33 9.97.07 19.94.11 29.91-.02a159 159 0 0 1 6.98 11.63c3.03 5.56 6.68 10.82 9.55 16.46.64 1.55 1.64 2.91.79 4.59-2.81 6.43-7.12 12.26-10.47 18.42-2.03 3.54-3.83 7.48-6.47 10.6-1.57.6-3.47.5-5.14.56-10.31-.11-20.62-.03-30.93-.11-6.16-10.17-11.98-20.56-17.93-30.85 3.68-6.23 7.06-12.62 10.87-18.78 2.46-3.94 4.3-8.87 7.6-12.17zM49.48 127.89c.75 2.34 1.48 4.69 2.17 7.05-5.74 2.86-11.54 5.47-17.46 7.94 5.01-5.09 9.99-10.2 15.29-14.99zM250.92 127.99c6.84 6.2 13.33 12.93 19.68 19.64-8.27.22-16.55.15-24.82.04 1.35-6.62 2.85-13.31 5.14-19.68zM59.01 136.22a399.8 399.8 0 0 1-.96 4.99c-.64-1.24-1.27-2.49-1.89-3.74.95-.41 1.9-.83 2.85-1.25z" fill="#fefefe"/><path d="M100.75 135.69c2.56 3.9 4.96 7.91 7.24 11.99-2.63.02-5.25.02-7.87.03.15-4.01.33-8.02.63-12.02zM52.69 139.95c.89 2.53 1.59 5.12 2.28 7.71-6.7.07-13.41.14-20.1-.09 5.61-2.88 11.63-6.27 17.82-7.62zM29.67 151.76c8.4-.2 16.81-.04 25.21-.16-1.49 6.75-3.12 13.67-5.48 20.16-6.77-6.41-13.82-12.77-19.73-20zM61.28 151.79c11.16-.4 22.37.02 33.54-.18-.31 10.14-1.83 20.22-2.51 30.34-.97 9.82-1.63 19.7-2.99 29.48-5.17-4.4-9.86-9.34-14.67-14.11-2.74-2.63-3.62-5.95-4.49-9.52-1.89-8.21-4.61-16.18-6.65-24.35-.94-3.76-2.31-7.78-2.23-11.66zM99.66 151.86c3.51-.42 7.12-.21 10.65-.19 5.65 9.66 11.45 19.25 16.81 29.08-7.6.17-15.08-.38-22.65.6l-.3 2.61c5.55 3.96 11.1 7.93 16.64 11.91-3.47 6.74-7.6 13.08-11.21 19.74-1.93 3.48-3.99 6.86-6.19 10.17-3.05-3.03-6.51-5.86-9.11-9.29-1.23-1.41-.72-3.71-.68-5.43 1.73-14.99 2.49-30.06 4.27-45.05.67-4.62.36-9.72 1.77-14.15zM205.59 151.87c11.36-.47 22.83-.02 34.21-.2-.95 4.06-1.73 8.22-3.1 12.15-.62 2.32-3.63 3.34-5.56 4.34-13.99 6.31-27.89 12.8-41.89 19.1-3.71 1.62-7.82 4.46-11.93 4.59-2.21-2.58-3.73-5.85-5.34-8.84a513.59 513.59 0 0 1 16.83-28.79c3.55 6.51 7.5 12.78 11.14 19.24.92-.25 1.85-.49 2.78-.73 1.27-6.88 1.1-14.12 2.86-20.86z" fill="#fefefe"/><path d="M192.45 151.83c2.7-.1 5.41-.15 8.12-.18-.16 4.17-.58 8.31-1.06 12.44-2.51-4-4.97-8.02-7.06-12.26zM245.61 151.75c6.41-.07 12.67-.4 19.04.64-5.27 2.84-11.05 6.55-17.05 7.32-.87-2.57-1.4-5.31-1.99-7.96zM265.81 157.12c-4.92 5.12-10 10.07-15.06 15.06-.59-2.26-1.31-4.64-1.5-6.97 4.64-3.76 11.12-5.69 16.56-8.09zM57.77 158.11c3.13 10.07 5.49 20.41 8.22 30.59-3.75-4.14-8.23-7.65-11.73-11.99-1.33-1.42-.67-3.11-.42-4.82 1.08-4.62 2.41-9.28 3.93-13.78zM242.91 158.85c.4 1.25.77 2.52 1.14 3.78-1.07.01-2.15.01-3.22.01.63-1.3 1.31-2.57 2.08-3.79zM245.12 166.28c.71 2.97 1.83 6.32 1.59 9.4-2.98 4.54-7.69 8.19-11.74 11.78 1.07-5.52 2.43-11.1 4.11-16.47.6-2.88 3.84-3.37 6.04-4.71zM234.57 171.28c-1.96 6.58-3.34 13.32-5.24 19.91-.74 2.73-2.33 4.86-4.31 6.81-9.27 9.24-18.58 18.44-27.74 27.79-4.38-5.64-7.3-11.97-11.05-17.99-2.29-3.81-4.37-7.77-6.46-11.68 18.31-8.18 36.43-16.79 54.8-24.84zM51.84 180.85c5.39 4.32 10 9.31 14.75 14.3-6.97 4.56-14.39 8.69-21.81 12.47 1.57-9.01 3.88-18.19 7.06-26.77zM248.64 180.88c2.9 8.92 5.51 17.98 7.31 27.18-7.35-4.32-15-8.2-22.12-12.89 4.79-4.78 9.46-10.17 14.81-14.29zM114.37 185.36c4.03-.93 8.57-.61 12.68-.38-1.1 2.46-2.28 4.87-3.5 7.27-3.35-1.85-6.81-3.8-9.18-6.89zM132.42 185.39c3-.91 6.47-.65 9.59-.68 7.91.18 15.76-.3 23.57.49-3.4 6.96-9.05 13.55-10.68 20.99 7.61-.99 13.13-5.35 20.21-7.64 2.71 2.33 4.29 5.32 5.95 8.41 3.75 7.14 8.37 13.73 11.83 21.03-4.06 1.12-8.06 2.67-12.19 3.47-1.58.34-2.58-.52-3.85-1.29-16.75-11.78-33.42-23.6-50.25-35.27 1.68-3.12 3.13-7.14 5.82-9.51z" fill="#fefefe"/><path d="M169.21 187.55c1.63 2.12 3.09 4.35 4.55 6.59-3.69 1.92-7.43 3.74-11.33 5.2 2.17-3.97 4.35-7.96 6.78-11.79zM68.89 199.13c2.02 6.62 3.57 13.37 5.59 19.99-9.22-1.82-18.46-4.36-27.48-7.01 1.58-1.58 3.43-2.71 5.37-3.79 5.46-2.92 10.86-6.64 16.52-9.19zM124.75 198.73c3.55 2.19 7 4.69 10.35 7.16 12.85 9.05 25.87 17.92 38.5 27.26-6.65 1.91-13.36 3.62-20.04 5.41-4.7 1.51-9.31-.91-13.88-1.98-10.73-2.75-21.51-5.3-32.11-8.55 2.31-4.75 4.79-9.38 7.57-13.87 3.19-5.15 5.82-10.84 9.61-15.43zM231.73 199.17c7.68 3.87 14.95 8.53 22.4 12.82-9.36 2.65-18.8 4.93-28.18 7.47 1.84-6.77 3.41-13.69 5.78-20.29zM225.83 203.21c-1.38 5.76-3.02 11.45-4.51 17.18-5.62 1.99-11.33 3.59-17.21 4.62 6.97-7.52 14.34-14.69 21.72-21.8zM75.04 203.85c4.11 3.53 8.21 7.27 11.76 11.36 2.2 2.33 1.62 4.85 1.87 7.79-2.95-.56-6.41-1.07-9.03-2.62-2.54-5.01-3.51-11.04-4.6-16.53zM81.05 226.22c2.17.03 4.39.29 6.55.5.03 6.25-.58 12.41-1.46 18.59-1.74-6.3-4.19-12.6-5.09-19.09zM219.82 225.47c-2.49 8.95-4.54 18.08-7.52 26.89-4.17-7.08-8.78-14.06-12.3-21.47 6.28-2.6 13.27-3.62 19.82-5.42zM92.37 228.47c2.83.7 5.66 1.42 8.48 2.15-3.55 5.83-6.74 11.87-10.42 17.62 0-6.69 1.13-13.07 1.94-19.77zM196.12 232.88c3.22 6.02 6.95 11.74 10.11 17.79-5.6-3.75-11.12-7.66-16.56-11.64 2.16-2.04 4.29-4.11 6.45-6.15zM104.66 233.12c5.1 4.51 9.81 9.53 14.43 14.53-8.93 2.48-17.97 4.79-27.02 6.8 3.81-7.28 7.86-14.61 12.59-21.33zM112.07 234c9.76 1.82 19.71 4.63 29.13 7.78-5.55 1.3-11.28 3.69-16.98 3.89-4.74-2.48-8.51-7.75-12.15-11.67zM184 234.46c1.66-.04 3.31-.09 4.96-.12-1.14.8-2.29 1.6-3.44 2.4-.51-.76-1.01-1.52-1.52-2.28zM174.31 237.2c1.41-.27 3.14-.95 4.54-.5 1.56.83 3 2 4.41 3.07-2.81 2.38-5.53 7.08-9.78 5.73-4.92-.96-9.73-2.5-14.56-3.8 5.08-1.67 10.23-3.12 15.39-4.5zM186.78 242.26c4.71 2.96 9.27 6.24 13.5 9.85-6.44-.89-12.74-2.5-18.88-4.62 1.77-1.76 3.53-3.56 5.38-5.23zM152.42 244.46c6.94 1.16 13.7 3.58 20.5 5.35-6.69 6.89-13.37 13.84-20.48 20.3-.11-8.53-.37-17.13-.02-25.65zM148.22 244.36c-.01 8.43.52 17.2-.61 25.51-6.71-6.59-13.4-13.19-19.94-19.96 6.78-2.23 13.57-4.06 20.55-5.55z" fill="#fefefe"/></svg>